<svg width="151" height="29" viewBox="0 0 151 29" fill="none" xmlns="http://www.w3.org/2000/svg">
<path d="M50.52 12.34V15H40.46V1.8H43.9V12.34H50.52ZM55.9313 15H52.4913V1.8H55.9313V15ZM70.6984 7.86V15H68.2984L68.1984 13.44C67.4384 14.6133 66.1784 15.2 64.4184 15.2C63.2184 15.2 62.1518 14.94 61.2184 14.42C60.2984 13.8867 59.5784 13.1133 59.0584 12.1C58.5384 11.0733 58.2784 9.84667 58.2784 8.42C58.2784 7.00667 58.5451 5.79333 59.0784 4.78C59.6118 3.75333 60.3718 2.96667 61.3584 2.42C62.3451 1.87333 63.5118 1.6 64.8584 1.6C66.3651 1.6 67.5784 1.86667 68.4984 2.4C69.4184 2.93333 70.1451 3.79333 70.6784 4.98L67.4984 6.24C67.3384 5.58667 67.0384 5.1 66.5984 4.78C66.1584 4.46 65.6118 4.3 64.9584 4.3C63.9451 4.3 63.1651 4.64667 62.6184 5.34C62.0851 6.03333 61.8184 7.05333 61.8184 8.4C61.8184 11.1733 62.8984 12.56 65.0584 12.56C65.8718 12.56 66.5251 12.3733 67.0184 12C67.5251 11.6267 67.7784 11.0867 67.7784 10.38V10.18H64.4984V7.86H70.6984ZM80.8716 12.02H76.3116L75.3916 15H71.9316L76.5716 1.8H80.6916L85.3116 15H81.7716L80.8716 12.02ZM80.1516 9.68L79.1916 6.52L78.6116 4.44H78.5716L78.0316 6.5L77.0316 9.68H80.1516ZM92.1202 1.8H98.5402C101.713 1.81333 103.3 3 103.3 5.36C103.3 6.13333 103.073 6.78667 102.62 7.32C102.167 7.85333 101.5 8.18667 100.62 8.32V8.34C101.607 8.47333 102.353 8.82 102.86 9.38C103.38 9.92667 103.64 10.6133 103.64 11.44C103.64 12.5867 103.233 13.4667 102.42 14.08C101.607 14.6933 100.413 15 98.8402 15H92.1202V1.8ZM97.9202 7.2C99.1602 7.2 99.7802 6.72 99.7802 5.76C99.7802 4.8 99.1602 4.32 97.9202 4.32H95.4402V7.2H97.9202ZM98.2602 12.58C98.8735 12.58 99.3335 12.4533 99.6402 12.2C99.9602 11.9467 100.12 11.58 100.12 11.1C100.12 10.6333 99.9602 10.28 99.6402 10.04C99.3335 9.78667 98.8735 9.66 98.2602 9.66H95.4402V12.58H98.2602ZM115.212 13.06C115.465 13.06 115.672 13.0333 115.832 12.98L115.572 14.88C115.185 15.0933 114.732 15.2 114.212 15.2C112.772 15.2 111.912 14.6867 111.632 13.66C111.032 14.6867 109.845 15.2 108.072 15.2C107.072 15.2 106.305 14.9867 105.772 14.56C105.239 14.1333 104.972 13.5133 104.972 12.7C104.972 11.8467 105.272 11.16 105.872 10.64C106.485 10.1067 107.485 9.7 108.872 9.42L111.132 8.98V8.62C111.132 8.16667 111.005 7.80667 110.752 7.54C110.499 7.27333 110.152 7.14 109.712 7.14C109.205 7.14 108.792 7.26 108.472 7.5C108.152 7.74 107.945 8.13333 107.852 8.68L105.092 7.88C105.265 6.90667 105.745 6.15333 106.532 5.62C107.319 5.07333 108.379 4.8 109.712 4.8C111.272 4.8 112.459 5.12 113.272 5.76C114.085 6.4 114.492 7.36 114.492 8.64V12.28C114.492 12.8 114.732 13.06 115.212 13.06ZM109.312 13C109.779 13 110.199 12.8733 110.572 12.62C110.945 12.3533 111.132 12.0067 111.132 11.58V10.72L109.512 11.1C109.085 11.2067 108.779 11.34 108.592 11.5C108.419 11.6467 108.332 11.86 108.332 12.14C108.332 12.42 108.419 12.6333 108.592 12.78C108.765 12.9267 109.005 13 109.312 13ZM123.733 4.8C124.786 4.8 125.626 5.10667 126.253 5.72C126.88 6.33333 127.193 7.20667 127.193 8.34V15H123.793V9.28C123.793 8.6 123.666 8.12 123.413 7.84C123.173 7.54667 122.826 7.4 122.373 7.4C121.84 7.4 121.406 7.59333 121.073 7.98C120.74 8.35333 120.573 8.93333 120.573 9.72V15H117.173V5H120.213L120.313 6.92C120.633 6.21333 121.086 5.68667 121.673 5.34C122.26 4.98 122.946 4.8 123.733 4.8ZM134.595 10.9L132.975 12.7V15H129.575V0.76H132.975V9.2L136.795 5H140.555L136.875 8.92L140.775 15H137.015L134.595 10.9Z" fill="#1F1E25"/>
<path d="M40.998 28H39.9141V21.6602H40.998V28ZM39.8262 19.9785C39.8262 19.8027 39.8789 19.6543 39.9844 19.5332C40.0938 19.4121 40.2539 19.3516 40.4648 19.3516C40.6758 19.3516 40.8359 19.4121 40.9453 19.5332C41.0547 19.6543 41.1094 19.8027 41.1094 19.9785C41.1094 20.1543 41.0547 20.3008 40.9453 20.418C40.8359 20.5352 40.6758 20.5938 40.4648 20.5938C40.2539 20.5938 40.0938 20.5352 39.9844 20.418C39.8789 20.3008 39.8262 20.1543 39.8262 19.9785ZM43.7637 21.6602L43.7988 22.457C44.2832 21.8477 44.916 21.543 45.6973 21.543C47.0371 21.543 47.7129 22.2988 47.7246 23.8105V28H46.6406V23.8047C46.6367 23.3477 46.5312 23.0098 46.3242 22.791C46.1211 22.5723 45.8027 22.4629 45.3691 22.4629C45.0176 22.4629 44.709 22.5566 44.4434 22.7441C44.1777 22.9316 43.9707 23.1777 43.8223 23.4824V28H42.7383V21.6602H43.7637ZM50.8301 20.125V21.6602H52.0137V22.498H50.8301V26.4297C50.8301 26.6836 50.8828 26.875 50.9883 27.0039C51.0938 27.1289 51.2734 27.1914 51.5273 27.1914C51.6523 27.1914 51.8242 27.168 52.043 27.1211V28C51.7578 28.0781 51.4805 28.1172 51.2109 28.1172C50.7266 28.1172 50.3613 27.9707 50.1152 27.6777C49.8691 27.3848 49.7461 26.9688 49.7461 26.4297V22.498H48.5918V21.6602H49.7461V20.125H50.8301ZM55.916 28.1172C55.0566 28.1172 54.3574 27.8359 53.8184 27.2734C53.2793 26.707 53.0098 25.9512 53.0098 25.0059V24.8066C53.0098 24.1777 53.1289 23.6172 53.3672 23.125C53.6094 22.6289 53.9453 22.2422 54.375 21.9648C54.8086 21.6836 55.2773 21.543 55.7812 21.543C56.6055 21.543 57.2461 21.8145 57.7031 22.3574C58.1602 22.9004 58.3887 23.6777 58.3887 24.6895V25.1406H54.0938C54.1094 25.7656 54.291 26.2715 54.6387 26.6582C54.9902 27.041 55.4355 27.2324 55.9746 27.2324C56.3574 27.2324 56.6816 27.1543 56.9473 26.998C57.2129 26.8418 57.4453 26.6348 57.6445 26.377L58.3066 26.8926C57.7754 27.709 56.9785 28.1172 55.916 28.1172ZM55.7812 22.4336C55.3438 22.4336 54.9766 22.5938 54.6797 22.9141C54.3828 23.2305 54.1992 23.6758 54.1289 24.25H57.3047V24.168C57.2734 23.6172 57.125 23.1914 56.8594 22.8906C56.5938 22.5859 56.2344 22.4336 55.7812 22.4336ZM62.7129 22.6328C62.5488 22.6055 62.3711 22.5918 62.1797 22.5918C61.4688 22.5918 60.9863 22.8945 60.7324 23.5V28H59.6484V21.6602H60.7031L60.7207 22.3926C61.0762 21.8262 61.5801 21.543 62.2324 21.543C62.4434 21.543 62.6035 21.5703 62.7129 21.625V22.6328ZM64.7402 21.6602L64.7754 22.457C65.2598 21.8477 65.8926 21.543 66.6738 21.543C68.0137 21.543 68.6895 22.2988 68.7012 23.8105V28H67.6172V23.8047C67.6133 23.3477 67.5078 23.0098 67.3008 22.791C67.0977 22.5723 66.7793 22.4629 66.3457 22.4629C65.9941 22.4629 65.6855 22.5566 65.4199 22.7441C65.1543 22.9316 64.9473 23.1777 64.7988 23.4824V28H63.7148V21.6602H64.7402ZM72.9668 28.1172C72.1074 28.1172 71.4082 27.8359 70.8691 27.2734C70.3301 26.707 70.0605 25.9512 70.0605 25.0059V24.8066C70.0605 24.1777 70.1797 23.6172 70.418 23.125C70.6602 22.6289 70.9961 22.2422 71.4258 21.9648C71.8594 21.6836 72.3281 21.543 72.832 21.543C73.6562 21.543 74.2969 21.8145 74.7539 22.3574C75.2109 22.9004 75.4395 23.6777 75.4395 24.6895V25.1406H71.1445C71.1602 25.7656 71.3418 26.2715 71.6895 26.6582C72.041 27.041 72.4863 27.2324 73.0254 27.2324C73.4082 27.2324 73.7324 27.1543 73.998 26.998C74.2637 26.8418 74.4961 26.6348 74.6953 26.377L75.3574 26.8926C74.8262 27.709 74.0293 28.1172 72.9668 28.1172ZM72.832 22.4336C72.3945 22.4336 72.0273 22.5938 71.7305 22.9141C71.4336 23.2305 71.25 23.6758 71.1797 24.25H74.3555V24.168C74.3242 23.6172 74.1758 23.1914 73.9102 22.8906C73.6445 22.5859 73.2852 22.4336 72.832 22.4336ZM78.1699 20.125V21.6602H79.3535V22.498H78.1699V26.4297C78.1699 26.6836 78.2227 26.875 78.3281 27.0039C78.4336 27.1289 78.6133 27.1914 78.8672 27.1914C78.9922 27.1914 79.1641 27.168 79.3828 27.1211V28C79.0977 28.0781 78.8203 28.1172 78.5508 28.1172C78.0664 28.1172 77.7012 27.9707 77.4551 27.6777C77.209 27.3848 77.0859 26.9688 77.0859 26.4297V22.498H75.9316V21.6602H77.0859V20.125H78.1699ZM82.8809 24.8184H80.0215V23.9336H82.8809V24.8184ZM89.3086 24.9004C89.3086 25.8691 89.0859 26.6484 88.6406 27.2383C88.1953 27.8242 87.5977 28.1172 86.8477 28.1172C86.0469 28.1172 85.4277 27.834 84.9902 27.2676L84.9375 28H83.9414V19H85.0254V22.3574C85.4629 21.8145 86.0664 21.543 86.8359 21.543C87.6055 21.543 88.209 21.834 88.6465 22.416C89.0879 22.998 89.3086 23.7949 89.3086 24.8066V24.9004ZM88.2246 24.7773C88.2246 24.0391 88.082 23.4688 87.7969 23.0664C87.5117 22.6641 87.1016 22.4629 86.5664 22.4629C85.8516 22.4629 85.3379 22.7949 85.0254 23.459V26.2012C85.3574 26.8652 85.875 27.1973 86.5781 27.1973C87.0977 27.1973 87.502 26.9961 87.791 26.5938C88.0801 26.1914 88.2246 25.5859 88.2246 24.7773ZM94.5938 28C94.5312 27.875 94.4805 27.6523 94.4414 27.332C93.9375 27.8555 93.3359 28.1172 92.6367 28.1172C92.0117 28.1172 91.498 27.9414 91.0957 27.5898C90.6973 27.2344 90.498 26.7852 90.498 26.2422C90.498 25.582 90.748 25.0703 91.248 24.707C91.752 24.3398 92.459 24.1562 93.3691 24.1562H94.4238V23.6582C94.4238 23.2793 94.3105 22.9785 94.084 22.7559C93.8574 22.5293 93.5234 22.416 93.082 22.416C92.6953 22.416 92.3711 22.5137 92.1094 22.709C91.8477 22.9043 91.7168 23.1406 91.7168 23.418H90.627C90.627 23.1016 90.7383 22.7969 90.9609 22.5039C91.1875 22.207 91.4922 21.9727 91.875 21.8008C92.2617 21.6289 92.6855 21.543 93.1465 21.543C93.877 21.543 94.4492 21.7266 94.8633 22.0938C95.2773 22.457 95.4922 22.959 95.5078 23.5996V26.5176C95.5078 27.0996 95.582 27.5625 95.7305 27.9062V28H94.5938ZM92.7949 27.1738C93.1348 27.1738 93.457 27.0859 93.7617 26.9102C94.0664 26.7344 94.2871 26.5059 94.4238 26.2246V24.9238H93.5742C92.2461 24.9238 91.582 25.3125 91.582 26.0898C91.582 26.4297 91.6953 26.6953 91.9219 26.8867C92.1484 27.0781 92.4395 27.1738 92.7949 27.1738ZM98.2324 21.6602L98.2676 22.457C98.752 21.8477 99.3848 21.543 100.166 21.543C101.506 21.543 102.182 22.2988 102.193 23.8105V28H101.109V23.8047C101.105 23.3477 101 23.0098 100.793 22.791C100.59 22.5723 100.271 22.4629 99.8379 22.4629C99.4863 22.4629 99.1777 22.5566 98.9121 22.7441C98.6465 22.9316 98.4395 23.1777 98.291 23.4824V28H97.207V21.6602H98.2324ZM105.598 25.0645L104.918 25.7734V28H103.834V19H104.918V24.4434L105.498 23.7461L107.473 21.6602H108.791L106.324 24.3086L109.078 28H107.807L105.598 25.0645Z" fill="#1F1E25"/>
<path d="M17.875 1H14.75L1 24.0488H5.0625L6.9375 20.7561L17.875 1Z" fill="#2C36F2"/>
<path d="M2.875 28H29.125L17.875 7.58537L16 10.878L21.625 20.7561L23.5 24.0488H5.0625H1L2.875 28Z" fill="#2C36F2"/>
<path d="M23.5 24.0488L21.625 20.7561H10.375H6.9375L5.0625 24.0488H23.5Z" fill="#2C36F2"/>
<path d="M29.125 28L31 24.0488L17.875 1L6.9375 20.7561H10.375L16 10.878L17.875 7.58537L29.125 28Z" fill="#2C36F2"/>
<path d="M16 10.878L10.375 20.7561H21.625L16 10.878Z" fill="#2C36F2"/>
<path d="M29.125 28H2.875L1 24.0488M29.125 28L31 24.0488L17.875 1M29.125 28L17.875 7.58537L16 10.878M17.875 1H14.75L1 24.0488M17.875 1L6.9375 20.7561M1 24.0488H5.0625M16 10.878L10.375 20.7561M16 10.878L21.625 20.7561M10.375 20.7561H21.625M10.375 20.7561H6.9375M21.625 20.7561L23.5 24.0488H5.0625M6.9375 20.7561L5.0625 24.0488" stroke="#F6F7FF"/>
</svg>
