<svg width="150" height="27" viewBox="0 0 150 27" fill="none" xmlns="http://www.w3.org/2000/svg">
<path d="M49.52 23.34V26H39.46V12.8H42.9V23.34H49.52ZM54.9313 26H51.4913V12.8H54.9313V26ZM69.6984 18.86V26H67.2984L67.1984 24.44C66.4384 25.6133 65.1784 26.2 63.4184 26.2C62.2184 26.2 61.1518 25.94 60.2184 25.42C59.2984 24.8867 58.5784 24.1133 58.0584 23.1C57.5384 22.0733 57.2784 20.8467 57.2784 19.42C57.2784 18.0067 57.5451 16.7933 58.0784 15.78C58.6118 14.7533 59.3718 13.9667 60.3584 13.42C61.3451 12.8733 62.5118 12.6 63.8584 12.6C65.3651 12.6 66.5784 12.8667 67.4984 13.4C68.4184 13.9333 69.1451 14.7933 69.6784 15.98L66.4984 17.24C66.3384 16.5867 66.0384 16.1 65.5984 15.78C65.1584 15.46 64.6118 15.3 63.9584 15.3C62.9451 15.3 62.1651 15.6467 61.6184 16.34C61.0851 17.0333 60.8184 18.0533 60.8184 19.4C60.8184 22.1733 61.8984 23.56 64.0584 23.56C64.8718 23.56 65.5251 23.3733 66.0184 23C66.5251 22.6267 66.7784 22.0867 66.7784 21.38V21.18H63.4984V18.86H69.6984ZM79.8716 23.02H75.3116L74.3916 26H70.9316L75.5716 12.8H79.6916L84.3116 26H80.7716L79.8716 23.02ZM79.1516 20.68L78.1916 17.52L77.6116 15.44H77.5716L77.0316 17.5L76.0316 20.68H79.1516ZM91.1202 12.8H97.5402C100.713 12.8133 102.3 14 102.3 16.36C102.3 17.1333 102.073 17.7867 101.62 18.32C101.167 18.8533 100.5 19.1867 99.6202 19.32V19.34C100.607 19.4733 101.353 19.82 101.86 20.38C102.38 20.9267 102.64 21.6133 102.64 22.44C102.64 23.5867 102.233 24.4667 101.42 25.08C100.607 25.6933 99.4135 26 97.8402 26H91.1202V12.8ZM96.9202 18.2C98.1602 18.2 98.7802 17.72 98.7802 16.76C98.7802 15.8 98.1602 15.32 96.9202 15.32H94.4402V18.2H96.9202ZM97.2602 23.58C97.8735 23.58 98.3335 23.4533 98.6402 23.2C98.9602 22.9467 99.1202 22.58 99.1202 22.1C99.1202 21.6333 98.9602 21.28 98.6402 21.04C98.3335 20.7867 97.8735 20.66 97.2602 20.66H94.4402V23.58H97.2602ZM114.212 24.06C114.465 24.06 114.672 24.0333 114.832 23.98L114.572 25.88C114.185 26.0933 113.732 26.2 113.212 26.2C111.772 26.2 110.912 25.6867 110.632 24.66C110.032 25.6867 108.845 26.2 107.072 26.2C106.072 26.2 105.305 25.9867 104.772 25.56C104.239 25.1333 103.972 24.5133 103.972 23.7C103.972 22.8467 104.272 22.16 104.872 21.64C105.485 21.1067 106.485 20.7 107.872 20.42L110.132 19.98V19.62C110.132 19.1667 110.005 18.8067 109.752 18.54C109.499 18.2733 109.152 18.14 108.712 18.14C108.205 18.14 107.792 18.26 107.472 18.5C107.152 18.74 106.945 19.1333 106.852 19.68L104.092 18.88C104.265 17.9067 104.745 17.1533 105.532 16.62C106.319 16.0733 107.379 15.8 108.712 15.8C110.272 15.8 111.459 16.12 112.272 16.76C113.085 17.4 113.492 18.36 113.492 19.64V23.28C113.492 23.8 113.732 24.06 114.212 24.06ZM108.312 24C108.779 24 109.199 23.8733 109.572 23.62C109.945 23.3533 110.132 23.0067 110.132 22.58V21.72L108.512 22.1C108.085 22.2067 107.779 22.34 107.592 22.5C107.419 22.6467 107.332 22.86 107.332 23.14C107.332 23.42 107.419 23.6333 107.592 23.78C107.765 23.9267 108.005 24 108.312 24ZM122.733 15.8C123.786 15.8 124.626 16.1067 125.253 16.72C125.88 17.3333 126.193 18.2067 126.193 19.34V26H122.793V20.28C122.793 19.6 122.666 19.12 122.413 18.84C122.173 18.5467 121.826 18.4 121.373 18.4C120.84 18.4 120.406 18.5933 120.073 18.98C119.74 19.3533 119.573 19.9333 119.573 20.72V26H116.173V16H119.213L119.313 17.92C119.633 17.2133 120.086 16.6867 120.673 16.34C121.26 15.98 121.946 15.8 122.733 15.8ZM133.595 21.9L131.975 23.7V26H128.575V11.76H131.975V20.2L135.795 16H139.555L135.875 19.92L139.775 26H136.015L133.595 21.9Z" fill="#1F1E25"/>
<path d="M16.75 1H13.8333L1 22.3415H4.79167L6.54167 19.2927L16.75 1Z" fill="#2C36F2"/>
<path d="M2.75 26H27.25L16.75 7.09756L15 10.1463L20.25 19.2927L22 22.3415H4.79167H1L2.75 26Z" fill="#2C36F2"/>
<path d="M22 22.3415L20.25 19.2927H9.75H6.54167L4.79167 22.3415H22Z" fill="#2C36F2"/>
<path d="M27.25 26L29 22.3415L16.75 1L6.54167 19.2927H9.75L15 10.1463L16.75 7.09756L27.25 26Z" fill="#2C36F2"/>
<path d="M15 10.1463L9.75 19.2927H20.25L15 10.1463Z" fill="#2C36F2"/>
<path d="M27.25 26H2.75L1 22.3415M27.25 26L29 22.3415L16.75 1M27.25 26L16.75 7.09756L15 10.1463M16.75 1H13.8333L1 22.3415M16.75 1L6.54167 19.2927M1 22.3415H4.79167M15 10.1463L9.75 19.2927M15 10.1463L20.25 19.2927M9.75 19.2927H20.25M9.75 19.2927H6.54167M20.25 19.2927L22 22.3415H4.79167M6.54167 19.2927L4.79167 22.3415" stroke="#F6F7FF"/>
</svg>
